<svg xmlns="http://www.w3.org/2000/svg" viewBox="0 0 92 97"><defs><style>.cls-1{fill:#ef4444;}</style></defs><g id="Layer_2" data-name="Layer 2"><g id="Layer_1-2" data-name="Layer 1"><path class="cls-1" d="M46,97V53.08q0-8.07-2.85-11t-9.41-3a14.06,14.06,0,0,0-6.28,1.37,13.74,13.74,0,0,0-4.67,3.74A16.42,16.42,0,0,0,20,49.7,22.45,22.45,0,0,0,19,56.39V97H0V0H19V35.22a14.36,14.36,0,0,1,3.13-4.4A19.83,19.83,0,0,1,27,27.28,28.9,28.9,0,0,1,33.12,25a27.66,27.66,0,0,1,7-.86q11.05,0,18,6T65,46.77V97Z"/><path class="cls-1" d="M72,97V78H92V97Z"/></g></g></svg>