<svg xmlns="http://www.w3.org/2000/svg" viewBox="0 0 448 100.58"><defs><style>.cls-1{fill:#ef4444;}</style></defs><g id="Layer_2" data-name="Layer 2"><g id="Layer_1-2" data-name="Layer 1"><path class="cls-1" d="M46,97V53.08q0-8.07-2.85-11t-9.41-3a14.06,14.06,0,0,0-6.28,1.37,13.74,13.74,0,0,0-4.67,3.74A16.42,16.42,0,0,0,20,49.7,22.45,22.45,0,0,0,19,56.39V97H0V0H19V35.22a14.36,14.36,0,0,1,3.13-4.4A19.83,19.83,0,0,1,27,27.28,28.9,28.9,0,0,1,33.12,25a27.66,27.66,0,0,1,7-.86q11.05,0,18,6T65,46.77V97Z"/><path class="cls-1" d="M89.57,67q.45,8.35,4.85,13.28A14.75,14.75,0,0,0,106,85.21,16.18,16.18,0,0,0,114.42,83a9.78,9.78,0,0,0,4.7-6h20q-3.44,11.34-11.94,17.46t-20.3,6.12q-36.72,0-36.71-40a46.64,46.64,0,0,1,2.38-15.37,33.17,33.17,0,0,1,6.94-11.79,29.94,29.94,0,0,1,11.12-7.54,40.63,40.63,0,0,1,15.08-2.61q17,0,25.74,10.89T140.17,67Zm30.07-12a19.94,19.94,0,0,0-1.37-6.84,14.45,14.45,0,0,0-3.24-4.9,13.08,13.08,0,0,0-4.61-2.88,15.66,15.66,0,0,0-5.33-.93,13.32,13.32,0,0,0-9.72,4.1Q91.28,47.66,90.69,55Z"/><path class="cls-1" d="M145,97V0h19V97Z"/><path class="cls-1" d="M172,97V0h19V97Z"/><path class="cls-1" d="M241.48,48c-.48-3.5-1.75-6-3.79-7.37s-5.25-2.12-9.63-2.12a20,20,0,0,0-8.32,1.39,4.74,4.74,0,0,0-2.92,4.6,5.33,5.33,0,0,0,2.92,4.89,39,39,0,0,0,8.76,3.28q6.12,1.76,11.67,3.14a86.78,86.78,0,0,1,9.78,3,20.55,20.55,0,0,1,8.76,6.35q3.06,4,3.06,11,0,11.24-7.95,17.51T230.39,100q-16.63,0-25.46-7a22.75,22.75,0,0,1-9.13-18h19.56a9.05,9.05,0,0,0,3.94,7.88q3.94,2.78,10.95,2.77a21.85,21.85,0,0,0,8.9-1.67,5.94,5.94,0,0,0,3.77-6.36,5.75,5.75,0,0,0-3.34-4.78,45.14,45.14,0,0,0-8.17-2.8q-9-2.19-14.59-3.94a37.74,37.74,0,0,1-9.34-4.24,18.21,18.21,0,0,1-7.08-7.29,20.28,20.28,0,0,1-2-8.9A22.06,22.06,0,0,1,200,37.2a16.41,16.41,0,0,1,5.25-6.79A27,27,0,0,1,214.7,26a52.61,52.61,0,0,1,13.94-1.6q15.62,0,23,6T259.73,48Z"/><path class="cls-1" d="M267,18V1h19V18Zm0,79V26h19V97Z"/><path class="cls-1" d="M335,51h17V71.16a35,35,0,0,1-1.64,10.73A25.09,25.09,0,0,1,345.23,91a24.44,24.44,0,0,1-8.83,6.26,32.07,32.07,0,0,1-12.76,2.31,33.36,33.36,0,0,1-13.11-2.31,24.66,24.66,0,0,1-8.9-6.19A23.48,23.48,0,0,1,296.57,82,37.44,37.44,0,0,1,295,71V7h18V27h39V40H313V69.24q0,6.8,2.55,10.49t8.38,3.69q5.69,0,8.37-3.62T335,69.53Z"/><path class="cls-1" d="M376.12,67q.45,8.35,4.85,13.28a14.75,14.75,0,0,0,11.57,4.93A16.18,16.18,0,0,0,401,83a9.74,9.74,0,0,0,4.7-6h20q-3.44,11.34-11.94,17.46t-20.3,6.12q-36.71,0-36.71-40a46.64,46.64,0,0,1,2.38-15.37,33,33,0,0,1,6.95-11.79,29.83,29.83,0,0,1,11.11-7.54,40.63,40.63,0,0,1,15.08-2.61q17,0,25.75,10.89T426.72,67Zm30.07-12a19.7,19.7,0,0,0-1.37-6.84,14.45,14.45,0,0,0-3.24-4.9A13,13,0,0,0,397,40.38a15.6,15.6,0,0,0-5.32-.93,13.32,13.32,0,0,0-9.73,4.1q-4.1,4.11-4.67,11.45Z"/><path class="cls-1" d="M428,97V78h20V97Z"/></g></g></svg>